<?xml version="1.0" standalone="no"?><!DOCTYPE svg PUBLIC "-//W3C//DTD SVG 1.1//EN" "http://www.w3.org/Graphics/SVG/1.1/DTD/svg11.dtd"><svg t="1542778869839" class="icon" style="" viewBox="0 0 1024 1024" version="1.1" xmlns="http://www.w3.org/2000/svg" p-id="7107" data-spm-anchor-id="a313x.7781069.0.i13" xmlns:xlink="http://www.w3.org/1999/xlink" width="200" height="200"><defs><style type="text/css"></style></defs><path d="M986.944 252.16c-20.288 0-36.864-16.512-36.864-36.864 0-12.48-10.048-22.656-22.464-22.656l-831.296 0c-12.288 0-22.464 10.112-22.464 22.656 0 20.352-16.512 36.864-36.864 36.864-20.48 0-36.992-16.512-36.992-36.864 0-53.12 43.264-96.512 96.32-96.512l831.296 0c53.12 0 96.384 43.392 96.384 96.512 0 20.352-16.576 36.864-36.864 36.864L986.944 252.16zM927.616 905.28l-831.296 0c-53.056 0-96.32-43.136-96.32-96.384 0-20.352 16.512-36.864 36.992-36.864 20.352 0 36.864 16.512 36.864 36.864 0 12.352 10.112 22.528 22.464 22.528l831.296 0c12.352 0 22.464-10.112 22.464-22.528 0-20.352 16.576-36.864 36.864-36.864 20.48 0 37.056 16.512 37.056 36.864C1024 862.144 980.736 905.28 927.616 905.28L927.616 905.28zM129.088 669.504l0-39.616 58.176 0 0-231.872-64.704 21.888-3.2-41.28 90.304-30.976 21.376 0 0 282.24 46.976 0 0 39.616L129.088 669.504 129.088 669.504zM393.6 491.52c-9.6-12.352-14.528-29.376-14.528-48.768 0-54.528 42.24-95.104 103.744-95.104 60.8 0 104.128 36.992 104.128 97.856 0 45.376-21.888 78.656-72.064 121.856-17.6 14.848-42.304 38.4-64.064 62.528l141.056 0 0 39.616-214.912 0 0-21.504c32.768-36.352 76.928-80.64 111.744-112.768 37.888-34.24 53.44-59.776 53.44-89.28 0-35.136-23.552-57.6-59.968-57.6-36.224 0-58.176 22.848-58.176 51.264 0 12.352 3.776 24.128 11.776 36.224L393.6 491.52 393.6 491.52zM728.704 589.248c17.216 29.888 38.912 46.528 67.904 46.528 37.312 0 63.04-24.128 63.04-59.392 0-34.624-20.416-52.992-53.504-52.992l-22.912 0 0-39.36 22.4 0c27.904 0 45.504-14.976 45.504-47.104 0-29.888-21.376-48.512-52.992-48.512-27.136 0-48.576 16-65.152 49.6l-35.776-21.888c20.864-43.776 55.552-68.48 100.864-68.48 58.88 0 97.792 33.344 97.792 86.144 0 32.64-15.424 54.976-42.624 70.016 31.936 12.352 51.328 36.224 51.328 73.28 0 60.864-44.416 99.392-109.056 99.392-48.128 0-81.28-22.976-103.104-60.48L728.704 589.248 728.704 589.248zM728.704 589.248" p-id="7108" data-spm-anchor-id="a313x.7781069.0.i12" class=""></path></svg>