<?xml version="1.0" standalone="no"?><!DOCTYPE svg PUBLIC "-//W3C//DTD SVG 1.1//EN" "http://www.w3.org/Graphics/SVG/1.1/DTD/svg11.dtd"><svg t="1538886700094" class="icon" style="" viewBox="0 0 1593 1024" version="1.1" xmlns="http://www.w3.org/2000/svg" p-id="1356" xmlns:xlink="http://www.w3.org/1999/xlink" width="311.1328125" height="200"><defs><style type="text/css"></style></defs><path d="M796.444444 1023.886222C441.002667 1023.886222 239.729778 782.336-0.113778 511.658667 278.300444 195.128889 505.287111-0.113778 796.444444-0.113778 1147.448889-0.113778 1408.796444 282.282667 1592.888889 517.461333 1413.006222 718.165333 1151.772444 1023.886222 796.444444 1023.886222ZM796.444444 170.552889C620.771556 170.552889 477.866667 323.697778 477.866667 511.886222 477.866667 700.074667 620.771556 853.219556 796.444444 853.219556 972.117333 853.219556 1115.022222 700.074667 1115.022222 511.886222 1115.022222 323.697778 972.117333 170.552889 796.444444 170.552889ZM796.444444 710.997333C693.930667 710.997333 610.531556 621.681778 610.531556 511.886222 610.531556 402.090667 693.930667 312.775111 796.444444 312.775111 898.844444 312.775111 982.243556 402.090667 982.243556 511.886222 982.243556 621.681778 898.844444 710.997333 796.444444 710.997333Z" p-id="1357"></path></svg>