<?xml version="1.0" standalone="no"?><!DOCTYPE svg PUBLIC "-//W3C//DTD SVG 1.1//EN" "http://www.w3.org/Graphics/SVG/1.1/DTD/svg11.dtd"><svg t="1538885919817" class="icon" style="" viewBox="0 0 1024 1024" version="1.1" xmlns="http://www.w3.org/2000/svg" p-id="2571" xmlns:xlink="http://www.w3.org/1999/xlink" width="200" height="200"><defs><style type="text/css"></style></defs><path d="M924.98944 644.5568h-49.18784v-65.69472c0-32.9472-26.79808-59.74528-59.74528-59.74528H542.72v-79.36h79.34464c32.9472 0 59.7504-26.8032 59.7504-59.74528V159.87712c0-32.9472-26.8032-59.74528-59.7504-59.74528H401.93024c-32.94208 0-59.74528 26.8032-59.74528 59.74528V380.0064c0 32.9472 26.8032 59.74528 59.74528 59.74528H481.28v79.36H207.94368c-32.9472 0-59.74528 26.79808-59.74528 59.74528v65.69472h-49.18784c-32.94208 0-59.74528 26.79808-59.74528 59.74528v159.8208c0 32.9472 26.8032 59.7504 59.74528 59.7504h159.8208c32.9472 0 59.74528-26.8032 59.74528-59.7504v-159.8208c0-32.9472-26.8032-59.74528-59.74528-59.74528h-49.18784v-64H481.28v64h-49.18784c-32.9472 0-59.74528 26.79808-59.74528 59.74528v159.8208c0 32.9472 26.8032 59.7504 59.74528 59.7504h159.8208c32.9472 0 59.74528-26.8032 59.74528-59.7504v-159.8208c0-32.9472-26.79808-59.74528-59.74528-59.74528H542.72v-64h271.6416v64h-49.18784c-32.9472 0-59.74528 26.79808-59.74528 59.74528v159.8208c0 32.9472 26.79808 59.7504 59.74528 59.7504h159.8208c32.9472 0 59.7504-26.8032 59.7504-59.7504v-159.8208c-0.00512-32.94208-26.81344-59.74016-59.75552-59.74016zM403.62496 161.56672h216.74496V378.3168H403.62496V161.56672zM257.13152 862.43328H100.70016V705.9968h156.43136v156.43648z m333.0816 0H433.78176V705.9968h156.43136v156.43648z m333.08672 0h-156.43648V705.9968h156.43648v156.43648z" p-id="2572"></path></svg>