<?xml version="1.0" standalone="no"?><!DOCTYPE svg PUBLIC "-//W3C//DTD SVG 1.1//EN" "http://www.w3.org/Graphics/SVG/1.1/DTD/svg11.dtd"><svg t="1539353400245" class="icon" style="" viewBox="0 0 1024 1024" version="1.1" xmlns="http://www.w3.org/2000/svg" p-id="1268" xmlns:xlink="http://www.w3.org/1999/xlink" width="200" height="200"><defs><style type="text/css"></style></defs><path d="M1004.52465778 821.67125333V3.59879111c-3.29728-0.17180445-6.75271111-0.44600889-9.80878223-0.44600889-231.05763555 0-602.79466667-0.13653333-833.85457777 0.27534223-15.28263111 0.03413333-31.13415111 2.33472-45.71477333 6.76636444-58.69681778 17.89269333-95.35943111 69.37713778-95.37649778 132.33265778-0.06826667 264.11576889-0.03413333 445.80181333-0.01820445 709.91872 0 3.36554667 0.03413333 6.73223111 0.13767111 10.13191111 1.47797333 47.25987555 18.59925333 98.31424 57.27118222 128.12515555 27.18492445 20.98403555 58.43854222 31.10001778 93.09297778 31.10001778h833.17191112v-4.05390222c1.09909333 0.06940445 1.09909333 0.06940445 1.09909333 0.13653333v-75.04554667c-20.87822222-12.19242667-35.16871111-34.61916445-35.16871111-60.5843911 0-25.96522667 14.29048889-48.39196445 35.16871111-60.58439112zM918.51776 952.57031111H160.44942222c-38.84373333 0-70.33856-31.48572445-70.33856-70.33059556 0-38.84373333 31.49368889-70.33059555 70.33742223-70.33059555h758.07061333c-12.07182222 20.87936-19.50833778 44.57130667-19.50833778 70.33059555 0 25.75815111 7.43651555 49.45123555 19.50833778 70.33059556zM934.1952 741.5808h-12.87509333c-193.03879111 0-526.7456 0.0512-719.78552889-0.36181333-38.57066667-0.06940445-77.23804445-0.29354667-112.40334223 22.85681778v-12.77724445c0-219.56949333 0.43690667-388.58183111-0.48924444-608.1536-0.15473778-38.12238222 26.36458667-72.08049778 73.76213334-71.94396445 206.85937778 0.51541333 554.38791111 0.04323555 761.23363555 0.04323556h10.55857778V741.5808z" p-id="1269"></path><path d="M640.04323555 240.01991111c-16.19740445-13.82741333-35.75808-23.38133333-58.68544-28.66062222-16.37717333-3.82179555-40.12487111-5.73212445-71.24195555-5.73212444H372.27178667v400.15644444h144.39537778c24.19939555 0 45.62488889-2.27328 64.2810311-6.82325334 18.64931555-4.54656 34.57137778-11.23441778 47.76732445-20.06357333 13.19139555-8.82460445 25.33831111-20.92373333 36.44074667-36.30421333 11.09674667-15.37365333 20.19783111-34.80120889 27.29528888-58.27697778 7.09632-23.47349333 10.64391111-50.40355555 10.64391112-80.7936 0-35.66364445-5.23377778-67.37464889-15.69450667-95.12732444-10.46414222-27.74698667-26.24853333-50.54008889-47.35772445-68.37475556zM637.99751111 479.81226667c-7.00643555 21.20135111-16.78677333 38.07687111-29.34328889 50.63452444-8.91790222 8.91904-20.87936 15.83104-35.89347555 20.74510222-15.01184 4.91292445-35.71484445 7.36938667-62.09763556 7.36938667h-85.43573333V252.84835555h84.0704c31.48231111 0 54.31978667 2.73066667 68.51356444 8.18858667 19.65283555 7.64245333 36.34744889 22.70321778 50.08839111 45.17546667 13.73639111 22.4768 20.60629333 54.63722667 20.60629334 96.49038222 0 30.21027555-3.50435555 55.91381333-10.50851556 77.11175111z" p-id="1270"></path></svg>