<?xml version="1.0" standalone="no"?><!DOCTYPE svg PUBLIC "-//W3C//DTD SVG 1.1//EN" "http://www.w3.org/Graphics/SVG/1.1/DTD/svg11.dtd"><svg t="1539353391225" class="icon" style="" viewBox="0 0 1024 1024" version="1.1" xmlns="http://www.w3.org/2000/svg" p-id="1150" xmlns:xlink="http://www.w3.org/1999/xlink" width="200" height="200"><defs><style type="text/css"></style></defs><path d="M755.82577778 361.24444445l-51.31377778-6.37155556v-12.85688889l25.71377778-38.45688889c12.85688889-19.22844445 12.85688889-38.45688889 0-57.68533333l-32.08533333-38.45688889c-12.85688889-6.37155555-19.22844445-6.37155555-32.08533334-6.37155556-6.37155555 0-19.22844445 0-25.71377778 6.37155556l-44.94222222 25.71377778h-6.37155556l-6.37155555-51.31377778c-6.37155555-19.22844445-25.71377778-38.45688889-44.94222222-38.45688889h-44.94222223c-25.71377778 0-44.94222222 19.22844445-51.31377777 38.45688889l-6.37155556 51.31377778h-12.85688889l-38.45688888-25.71377778c-6.37155555-6.37155555-12.85688889-12.85688889-25.71377778-12.85688889s-19.22844445 6.37155555-32.08533334 12.85688889L293.888 245.76c-12.85688889 12.85688889-12.85688889 38.45688889-6.37155555 57.68533333l32.08533333 38.45688889-6.37155556 12.85688889-44.94222222 6.37155556c-25.71377778 0-38.45688889 19.22844445-38.45688889 38.45688888v51.31377778c0 19.22844445 19.22844445 38.45688889 38.45688889 44.94222222l51.31377778 6.37155556v12.85688889l-32.08533333 38.45688889c-12.85688889 19.22844445-12.85688889 38.45688889 0 57.68533333l38.45688888 32.08533333c6.37155555 6.37155555 19.22844445 12.85688889 32.08533334 12.8568889 6.37155555 0 19.22844445 0 25.71377778-6.37155556l38.45688888-32.08533334 12.85688889 6.37155556 6.37155556 51.31377778c6.37155555 19.22844445 25.71377778 32.08533333 44.94222222 38.45688889H531.34222222c19.22844445 0 38.45688889-19.22844445 44.94222223-38.45688889l6.37155555-51.31377778h12.85688889l44.94222222 25.71377778c6.37155555 6.37155555 19.22844445 6.37155555 25.71377778 6.37155556 12.85688889 0 19.22844445-6.37155555 32.08533333-12.8568889l32.08533333-32.08533333c12.85688889-12.85688889 12.85688889-38.45688889 0-57.68533333l-25.71377777-38.45688889 6.37155555-12.85688889 51.31377778-6.37155556c19.22844445-6.37155555 38.45688889-19.22844445 38.45688889-44.94222222V406.18666667c-6.48533333-25.71377778-19.34222222-44.94222222-44.94222222-44.94222222zM569.68533333 572.98488889s-6.37155555 0 0 0c-6.37155555 0 0 0 0 0z m166.79822222-134.71288889l-44.94222222 6.37155555c-12.85688889 6.37155555-32.08533333 19.22844445-38.45688888 32.08533334l-6.37155556 19.22844444c-6.37155555 12.85688889 0 32.08533333 6.37155556 44.94222222l25.71377777 38.4568889-12.85688889 12.85688888-38.45688888-19.22844444c-6.37155555-6.37155555-19.22844445-12.85688889-32.08533334-12.85688889-6.37155555 0-12.85688889 0-19.22844444 6.37155555h-12.85688889c-19.22844445 12.85688889-32.08533333 25.71377778-32.08533333 44.94222223l-6.37155556 44.94222222h-19.22844444l-12.8568889-44.94222222c0-19.22844445-19.22844445-32.08533333-32.08533333-38.45688889l-12.85688889-6.37155556c-6.37155555 0-12.85688889-6.37155555-19.22844444-6.37155555-12.85688889 0-19.22844445 6.37155555-32.08533334 6.37155555l-38.45688888 25.71377778-12.85688889-12.85688889 25.71377777-38.45688889c6.37155555-12.85688889 12.85688889-32.08533333 0-51.31377778V476.72888889c-6.37155555-12.85688889-25.71377778-25.71377778-38.45688888-32.08533334l-44.94222222-6.37155555v-19.22844445l44.94222222-6.37155555c19.22844445 0 32.08533333-19.22844445 38.45688888-32.08533333l6.37155556-12.85688889c6.37155555-19.22844445 0-38.45688889-6.37155556-57.68533333l-25.71377777-32.08533334 12.85688889-19.22844444 38.45688888 25.71377778c6.37155555 6.37155555 19.22844445 6.37155555 32.08533334 6.37155555 6.37155555 0 12.85688889 0 19.22844444-6.37155555h12.85688889c19.22844445-6.37155555 32.08533333-19.22844445 32.08533333-38.4568889l6.37155556-44.94222222h19.22844444l6.37155556 44.94222222c0 19.22844445 19.22844445 32.08533333 32.08533334 38.4568889l19.22844444 6.37155555c6.37155555 0 12.85688889 6.37155555 19.22844444 6.37155555 12.85688889 0 19.22844445-6.37155555 32.08533334-6.37155555l38.45688888-32.08533333 12.8568889 12.85688888-25.6 38.34311112c-6.37155555 19.22844445-12.85688889 38.45688889 0 51.31377778v12.85688888c6.37155555 19.22844445 19.22844445 32.08533333 38.45688888 32.08533334l44.94222222 6.37155555v25.71377778zM370.91555555 489.58577778s6.37155555 6.37155555 0 0c6.37155555 6.37155555 6.37155555 6.37155555 0 0z m282.1688889-109.11288889s0-6.37155555 0 0c0-6.37155555 0-6.37155555 0 0 0-6.37155555 0-6.37155555 0 0z m275.9111111 590.16533333c-32.08533333 0-57.68533333-25.71377778-57.68533333-57.68533333v-57.68533334c6.37155555 0 19.22844445-6.37155555 38.45688889-19.22844444 19.22844445-19.22844445 19.22844445-32.08533333 19.22844444-38.45688889V78.96177778c0-25.71377778-12.85688889-44.94222222-25.71377777-51.31377778-6.37155555-12.85688889-25.71377778-25.71377778-51.31377778-25.71377778h-673.56444445c-64.17066667 0-115.48444445 51.31377778-115.48444444 115.48444445v789.04888888c0 64.17066667 51.31377778 115.48444445 115.48444444 115.48444445h750.592c19.22844445 0 32.08533333-12.85688889 32.08533334-32.08533333s-12.85688889-19.22844445-32.08533334-19.22844445z m-750.592 0c-32.08533333 0-57.68533333-25.71377778-57.68533333-57.68533333v-6.37155556c0-51.31377778 19.22844445-51.31377778 32.08533333-51.31377778H813.51111111v57.68533334c0 19.22844445 6.37155555 38.45688889 12.85688889 57.68533333H178.40355555z m692.7928889-186.02666667l-12.8568889 12.8568889H152.80355555c-12.85688889 0-25.71377778 0-32.08533333 6.37155555V117.41866667c0-32.08533333 25.71377778-57.68533333 57.68533333-57.68533334h673.56444445c6.37155555 0 19.22844445 12.85688889 19.22844445 19.22844445v705.64977777zM512 303.55911111c-70.54222222 0-128.34133333 57.68533333-128.34133333 128.34133334S441.45777778 560.128 512 560.128s128.34133333-57.68533333 128.34133333-128.34133333S582.54222222 303.55911111 512 303.55911111z m0 192.39822222c-38.45688889 0-70.54222222-32.08533333-70.54222222-70.54222222s32.08533333-70.54222222 70.54222222-70.54222222 70.54222222 32.08533333 70.54222222 70.54222222-32.08533333 70.54222222-70.54222222 70.54222222z m0 0" p-id="1151"></path></svg>