<svg width="1024" height="1024" xmlns="http://www.w3.org/2000/svg" class="icon">
 <defs>
  <style type="text/css"/>
 </defs>
 <g>
  <title>background</title>
  <rect fill="none" id="canvas_background" height="402" width="582" y="-1" x="-1"/>
 </g>
 <g>
  <title>Layer 1</title>
  <path id="svg_1" d="m1004.52466,821.67125l0,-818.07246c-3.29728,-0.1718 -6.75271,-0.44601 -9.80878,-0.44601c-231.05764,0 -602.79467,-0.13653 -833.85458,0.27534c-15.28263,0.03414 -31.13415,2.33472 -45.71478,6.76637c-58.69681,17.89269 -95.35943,69.37714 -95.37649,132.33266c-0.06827,264.11577 -0.03414,445.80181 -0.01821,709.91872c0,3.36554 0.03414,6.73223 0.13767,10.13191c1.47798,47.25987 18.59926,98.31424 57.27119,128.12515c27.18492,20.98404 58.43854,31.10002 93.09297,31.10002l833.17191,0l0,-4.0539c1.0991,0.0694 1.0991,0.0694 1.0991,0.13653l0,-75.04554c-20.87822,-12.19243 -35.16871,-34.61917 -35.16871,-60.5844c0,-25.96522 14.29049,-48.39196 35.16871,-60.58439zm-86.0069,130.89906l-758.06834,0c-38.84373,0 -70.33856,-31.48572 -70.33856,-70.33059c0,-38.84374 31.49369,-70.3306 70.33742,-70.3306l758.07062,0c-12.07182,20.87936 -19.50834,44.57131 -19.50834,70.3306c0,25.75815 7.43652,49.45123 19.50834,70.33059l-0.00114,0zm15.67744,-210.98951l-12.87509,0c-193.03879,0 -526.7456,0.0512 -719.78553,-0.36181c-38.57067,-0.06941 -77.23805,-0.29355 -112.40334,22.85681l0,-12.77724c0,-219.56949 0.4369,-388.58183 -0.48925,-608.1536c-0.15474,-38.12238 26.36459,-72.0805 73.76213,-71.94396c206.85938,0.51541 554.38792,0.04323 761.23364,0.04323l10.55858,0l0,670.33657l-0.00114,0z"/>
  <path id="svg_2" d="m524.043263,240.01991c-16.19741,-13.82741 -35.75808,-23.38133 -58.68544,-28.66062c-16.37718,-3.8218 -40.12488,-5.73213 -71.24196,-5.73213l-137.84405,0l0,400.15645l144.39537,0c24.1994,0 45.62489,-2.27328 64.28104,-6.82325c18.64931,-4.54656 34.57137,-11.23442 47.76732,-20.06358c13.1914,-8.8246 25.33831,-20.92373 36.44075,-36.30421c11.09674,-15.37365 20.19783,-34.80121 27.29529,-58.27698c7.09632,-23.47349 10.64391,-50.40355 10.64391,-80.7936c0,-35.66364 -5.23378,-67.37465 -15.69451,-95.12732c-10.46414,-27.74699 -26.24853,-50.54009 -47.35772,-68.37476zm-2.04573,239.79236c-7.00643,21.20135 -16.78677,38.07687 -29.34329,50.63452c-8.9179,8.91904 -20.87936,15.83104 -35.89347,20.7451c-15.01184,4.91293 -35.71485,7.36939 -62.09764,7.36939l-85.43573,0l0,-305.71292l84.0704,0c31.48231,0 54.31978,2.73066 68.51356,8.18858c19.65284,7.64246 36.34745,22.70322 50.08839,45.17547c13.73639,22.4768 20.6063,54.63723 20.6063,96.49038c0,30.21028 -3.50436,55.91381 -10.50852,77.11175l0,-0.00227z"/>
  <path d="m637,456.875c0,2 0,4 0,10c0,6 0.992432,15.815582 2,24c0.977478,7.940063 1.080994,16.106995 2,20c1.027466,4.352478 2,6 2,8c0,2 0,2 0,2c0,2 0,2 0,2c0,4 0,8 0,14c0,6 0,10 0,12c0,0 0,2 0,2l0,-2l0,0" id="svg_3" fill-opacity="null" stroke-opacity="null" stroke-width="null" stroke="null" fill="none"/>
  <line stroke="null" stroke-linecap="null" stroke-linejoin="null" id="svg_5" y2="440.00007" x2="420.000067" y1="321.904813" x1="335.238149" fill-opacity="null" stroke-opacity="null" stroke-width="null" fill="none"/>
  <rect stroke="null" id="svg_9" height="100.920954" width="42.305908" y="502.823472" x="673.719545" fill-opacity="null" stroke-opacity="null" stroke-width="null" fill="null"/>
  <rect stroke="null" id="svg_8" height="40.505897" width="111.199989" y="463.494059" x="640.277763" fill-opacity="null" stroke-opacity="null" stroke-width="null" fill="null"/>
 </g>
</svg>