<?xml version="1.0" standalone="no"?><!DOCTYPE svg PUBLIC "-//W3C//DTD SVG 1.1//EN" "http://www.w3.org/Graphics/SVG/1.1/DTD/svg11.dtd"><svg t="1539353413966" class="icon" style="" viewBox="0 0 1024 1024" version="1.1" xmlns="http://www.w3.org/2000/svg" p-id="1387" xmlns:xlink="http://www.w3.org/1999/xlink" width="200" height="200"><defs><style type="text/css"></style></defs><path d="M905.6 54.4c-9.6-6.4-28.8-22.4-48-22.4H227.2C166.4 32 115.2 80 115.2 140.8v742.4C115.2 944 163.2 992 224 992H876.8c3.2 0 6.4 0 9.6-3.2l3.2-3.2c3.2 0 3.2-3.2 6.4-3.2 3.2-3.2 3.2-6.4 6.4-6.4 0-3.2 3.2-6.4 3.2-9.6v-3.2-6.4s0-3.2-3.2-3.2c0-3.2-3.2-3.2-3.2-6.4l-3.2-3.2-3.2-3.2s-3.2 0-6.4-3.2h-3.2-3.2c-3.2 0-16 0-25.6-9.6-16-9.6-22.4-25.6-22.4-48 0-38.4 16-51.2 32-51.2H873.6c9.6 0 16-3.2 19.2-9.6h3.2c6.4-3.2 12.8-9.6 16-16 6.4-6.4 12.8-16 12.8-28.8V105.6c3.2-22.4-12.8-41.6-19.2-51.2z m-348.8 32h108.8V256l-22.4-22.4c-16-16-38.4-16-54.4 0l-28.8 28.8V86.4z m-102.4 0h48v211.2c0 16 9.6 28.8 22.4 35.2 6.4 3.2 12.8 3.2 19.2 3.2 9.6 0 22.4-3.2 28.8-12.8l41.6-38.4 41.6 38.4c12.8 9.6 28.8 12.8 41.6 6.4s22.4-19.2 22.4-35.2V86.4h134.4c6.4 3.2 16 12.8 19.2 19.2v659.2l-9.6 9.6H304V86.4h150.4z m-227.2 0h22.4v684.8H204.8c-12.8 0-22.4 3.2-32 6.4V140.8c0-28.8 22.4-54.4 54.4-54.4z m563.2 851.2H227.2c-28.8 0-54.4-25.6-54.4-54.4v-6.4c3.2-48 16-48 32-48h582.4c-6.4 16-9.6 32-9.6 51.2 0 25.6 3.2 41.6 12.8 57.6z" p-id="1388"></path></svg>