<?xml version="1.0" standalone="no"?><!DOCTYPE svg PUBLIC "-//W3C//DTD SVG 1.1//EN" "http://www.w3.org/Graphics/SVG/1.1/DTD/svg11.dtd"><svg t="1538885394943" class="icon" style="" viewBox="0 0 1024 1024" version="1.1" xmlns="http://www.w3.org/2000/svg" p-id="1779" xmlns:xlink="http://www.w3.org/1999/xlink" width="200" height="200"><defs><style type="text/css"></style></defs><path d="M684.71296 271.32928H83.79904C37.5552 271.32928 0 311.43936 0 360.75008v573.82912C0 983.88992 37.5552 1024 83.79904 1024h600.9088c46.24384 0 83.79904-40.11008 83.79904-89.4208V360.75008c0.00512-49.31072-37.5552-89.4208-83.79392-89.4208zM71.79264 360.75008c0-7.15264 5.36576-13.0304 12.0064-13.0304h600.9088c6.38464 0 12.0064 6.13376 12.0064 13.0304v573.82912c0 7.15264-5.36576 13.0304-12.0064 13.0304H84.05504c-6.38464 0-9.96352-4.59776-11.24352-8.68864l-1.024-3.06688V360.75008z" p-id="1780"></path><path d="M810.92096 136.43264H273.88416c-19.67104 0-35.51232 16.86016-35.51232 37.8112s15.84128 37.8112 35.51232 37.8112h538.0608c6.38464 0 12.0064 6.13376 12.0064 13.0304v573.82912c0 21.96992 15.32928 38.5792 35.25632 38.5792 19.67104 0 35.51232-16.86016 35.51232-37.8112V225.85344c0-49.31072-37.5552-89.4208-83.79904-89.4208z" p-id="1781"></path><path d="M938.15808 2.04288H401.11616c-19.67104 0-35.51232 16.60416-35.51232 37.5552 0 20.95104 15.84128 37.8112 35.51232 37.8112h537.8048c6.38464 0 12.0064 6.13376 12.0064 13.0304V663.7568c-0.512 10.21952 2.81088 19.67104 9.45152 27.07968 6.89664 7.66464 16.35328 12.0064 26.0608 12.2624 19.67104 0 35.51232-16.86016 35.51232-37.8112V91.46368c0.00512-49.3056-37.5552-89.4208-83.79392-89.4208z" p-id="1782"></path></svg>