<?xml version="1.0" standalone="no"?><!DOCTYPE svg PUBLIC "-//W3C//DTD SVG 1.1//EN" "http://www.w3.org/Graphics/SVG/1.1/DTD/svg11.dtd"><svg t="1538885756500" class="icon" style="" viewBox="0 0 1113 1024" version="1.1" xmlns="http://www.w3.org/2000/svg" p-id="1890" xmlns:xlink="http://www.w3.org/1999/xlink" width="217.3828125" height="200"><defs><style type="text/css"></style></defs><path d="M1104.255 515.36L611.725 22.827c-30.436-30.435-79.96-30.437-110.395 0L8.8 515.359c-11.726 11.725-11.726 30.736 0 42.46 11.724 11.725 30.735 11.725 42.458 0l40.653-40.654v425.828c0 43.043 35.018 78.06 78.06 78.06h768.6c43.043 0 78.062-35.017 78.062-78.06V512.656l45.162 45.162c5.863 5.863 13.545 8.794 21.23 8.794 7.685 0 15.367-2.93 21.23-8.794 11.724-11.724 11.724-30.734 0-42.459zM692.379 961.006H416.165V659.572c0-9.933 8.08-18.015 18.014-18.015h240.186c9.933 0 18.014 8.082 18.014 18.015v301.435z m264.207-18.014c0 9.933-8.08 18.014-18.014 18.014H752.426V659.572c0-43.043-35.018-78.06-78.06-78.06H434.178c-43.043 0-78.061 35.017-78.061 78.06v301.435H169.972c-9.933 0-18.014-8.08-18.014-18.014V457.12L543.789 65.288c7.023-7.024 18.453-7.024 25.476 0L956.586 452.61v490.383z" p-id="1891"></path></svg>