<?xml version="1.0" standalone="no"?><!DOCTYPE svg PUBLIC "-//W3C//DTD SVG 1.1//EN" "http://www.w3.org/Graphics/SVG/1.1/DTD/svg11.dtd"><svg t="1552841790381" class="icon" style="" viewBox="0 0 1024 1024" version="1.1" xmlns="http://www.w3.org/2000/svg" p-id="3216" xmlns:xlink="http://www.w3.org/1999/xlink" width="200" height="200"><defs><style type="text/css"></style></defs><path d="M746.762 175.536c-29.661 20.894-58.555 38.684-90.296 64.505-23.997 19.615-67.321 46.428-69.657 82.553-3.616 54.939 81.016 105.75 36.125 175.407-17.023 26.558-45.916 37.917-82.553 54.171-4.383-7.999 9.535-14.718 15.487-23.23 56.25-81.528-58.555-108.597-43.868-208.94 14.175-96.983 128.468-130.804 234.762-144.466zM388.204 510.864c-26.558 12.383-70.938 14.719-90.296 41.276 19.614 14.719 48.252 14.175 74.81 15.487 108.853 4.895 245.064-4.384 337.92-20.638 3.103 6.72-12.895 18.302-23.23 25.79-58.555 42.811-240.682 54.938-366.302 46.427-42.044-2.848-138.26-13.919-139.315-51.58-1.28-45.659 116.597-50.554 165.104-54.17 9.536-0.768 27.358-4.64 41.277-2.592zM334.033 626.95c12.127 1.536-8.512 8.767-5.152 18.047 44.38 43.867 182.383 31.485 250.217 18.046 14.174-2.848 28.381-11.36 38.684-10.335 25.79 2.336 42.3 32.253 64.506 36.124-78.425 35.357-229.834 52.124-340.512 30.942-28.637-5.408-78.425-20.895-79.96-43.868-2.336-31.23 49.275-44.38 72.217-49.02z m33.533 105.782c7.999 2.592-2.848 6.976-2.592 10.335 23.486 40.765 139.57 26.302 198.637 12.895 11.871-2.848 23.742-11.103 33.533-10.335 29.917 2.048 41.276 33.277 67.066 38.684-82.297 50.3-281.702 70.682-363.742 7.744-3.872-45.916 33.02-51.067 67.066-59.323z m-74.81 77.401c-24.51 6.207-87.96-2.592-90.295 30.941-0.768 12.895 21.662 28.126 36.125 33.533 84.088 31.741 253.064 36.637 392.09 20.638 64.507-7.487 185.743-29.15 170.257-95.447 19.358 2.336 36.636 14.719 38.684 33.533 7.744 71.193-155.825 101.11-221.835 108.342-143.698 15.742-323.234 12.639-433.367-25.79-35.869-12.383-79.193-35.357-77.401-69.657 3.104-57.787 142.387-73.785 185.743-36.125z m219.276 213.836c-96.727-10.591-189.87-24.766-268.295-59.322 205.069 49.275 504.049 45.66 647.491-59.323 7.744-5.663 14.975-16.766 25.79-15.486-36.125 108.341-174.896 115.829-294.084 134.131H512zM579.098 0.096c18.046 17.022 30.94 48.763 30.94 82.552 0 99.83-105.75 157.617-157.36 224.427-11.36 14.975-26.046 37.917-25.79 61.914 0.512 54.427 56.763 115.318 77.4 159.953-36.124-23.741-79.96-55.45-110.933-92.855-30.941-37.148-61.914-97.495-33.533-149.618 42.556-78.425 169.232-125.108 214.124-208.94 10.847-20.382 19.358-51.58 5.152-77.401z m152.21 536.59c53.146-45.404 143.154-27.614 147.026 49.02 4.383 89.783-93.912 140.082-165.105 144.466 33.021-31.486 120.213-82.04 103.19-154.77-6.975-29.405-43.611-47.196-85.112-38.684z" fill="" p-id="3217"></path></svg>