<?xml version="1.0" standalone="no"?><!DOCTYPE svg PUBLIC "-//W3C//DTD SVG 1.1//EN" "http://www.w3.org/Graphics/SVG/1.1/DTD/svg11.dtd"><svg t="1547788653322" class="icon" style="" viewBox="0 0 1024 1024" version="1.1" xmlns="http://www.w3.org/2000/svg" p-id="1586" xmlns:xlink="http://www.w3.org/1999/xlink" width="200" height="200"><defs><style type="text/css"></style></defs><path d="M928 384h-64V64H96v832h256v64H96a64 64 0 0 1-64-64V64a64 64 0 0 1 64-64h768a64 64 0 0 1 64 64v320z m34.56 276.48h-51.712c-4.864-10.56-11.776-32.384-20.608-47.936l36.48-35.456a28.8 28.8 0 0 0 0-41.088l-41.6-41.408a29.44 29.44 0 0 0-41.664 0.128l-34.496 36.48c-15.488-8.768-37.312-15.616-47.808-20.48v-51.648c0-16.32-17.28-29.44-33.536-29.44h-58.88c-16.256 0-33.536 13.12-33.536 29.44v51.648c-10.496 4.864-32.32 11.776-47.872 20.608l-35.456-36.48a28.8 28.8 0 0 0-41.152 0l-41.344 41.6a29.44 29.44 0 0 0 0.128 41.664l36.48 34.496c-8.768 15.552-15.616 37.312-20.48 47.808h-51.648c-16.32 0-29.44 17.28-29.44 33.536v58.88c0 16.256 13.12 33.536 29.44 33.536h51.648c4.864 10.496 11.776 32.32 20.608 47.872l-36.48 35.456a28.8 28.8 0 0 0 0 41.152l41.6 41.408a29.44 29.44 0 0 0 41.664-0.192l34.432-36.48c15.552 8.768 37.376 15.616 47.872 20.48v51.648c0 16.32 17.28 29.44 33.536 29.44h58.88c16.256 0 33.536-13.12 33.536-29.44v-51.648c10.496-4.864 32.256-11.776 47.872-20.608l35.456 36.48c11.52 11.52 29.632 11.52 41.088 0l41.408-41.6a29.44 29.44 0 0 0-0.128-41.664l-36.544-34.496c8.832-15.552 15.68-37.312 20.544-47.808h51.648c16.32 0 29.44-17.28 29.44-33.536v-58.88c0-16.256-13.12-33.536-29.44-33.536z m-264.384 195.392a132.48 132.48 0 1 1 0-264.96 132.48 132.48 0 0 1 0 264.96zM256 192h448a32 32 0 1 1 0 64h-448a32 32 0 0 1 0-64z m0 192h256a32 32 0 0 1 0 64h-256a32 32 0 0 1 0-64z" p-id="1587"></path></svg>