<?xml version="1.0" standalone="no"?><!DOCTYPE svg PUBLIC "-//W3C//DTD SVG 1.1//EN" "http://www.w3.org/Graphics/SVG/1.1/DTD/svg11.dtd"><svg t="1547619676804" class="icon" style="" viewBox="0 0 1024 1024" version="1.1" xmlns="http://www.w3.org/2000/svg" p-id="12230" xmlns:xlink="http://www.w3.org/1999/xlink" width="200" height="200"><defs><style type="text/css"></style></defs><path d="M432.32 770.133V600.64h-169.6c-90.773 0-169.6 78.613-169.6 169.493s78.827 169.6 169.6 169.6 169.6-78.826 169.6-169.6m60.587 0c0 127.147-102.934 230.08-230.187 230.08-127.147 0-230.08-102.933-230.08-230.08s102.933-230.08 230.08-230.08h230.187v230.08m109.013 0V600.64h169.6c90.667 0 169.387 72.64 169.387 169.493 0 90.88-72.534 169.6-169.387 169.6-90.987 0-169.6-78.826-169.6-169.6m-60.587 0c0 127.147 102.934 230.08 230.187 230.08 126.933 0 230.08-102.933 230.08-230.08s-103.147-230.08-230.187-230.08h-230.08v230.08M432.32 261.44v169.6h-169.6c-96.853 0-169.6-78.72-169.6-169.6 0-96.853 72.747-169.6 169.6-169.6 90.773 0 169.6 72.747 169.6 169.6m60.587 0c0-127.147-102.934-230.08-230.187-230.08-127.147 0-230.08 102.933-230.08 230.08s102.933 230.187 230.08 230.187h230.187V261.44m109.013 0v169.6h169.6c90.667 0 169.387-72.747 169.387-169.6S868.373 91.84 771.52 91.84c-90.987 0-169.6 72.747-169.6 169.6m-60.587 0c0-127.147 102.934-230.08 230.187-230.08 126.933 0 230.08 102.933 230.08 230.08S898.453 491.627 771.413 491.627h-230.08V261.44" p-id="12231"></path></svg>