<?xml version="1.0" standalone="no"?><!DOCTYPE svg PUBLIC "-//W3C//DTD SVG 1.1//EN" "http://www.w3.org/Graphics/SVG/1.1/DTD/svg11.dtd"><svg t="1538885816537" class="icon" style="" viewBox="0 0 1024 1024" version="1.1" xmlns="http://www.w3.org/2000/svg" p-id="1999" xmlns:xlink="http://www.w3.org/1999/xlink" width="200" height="200"><defs><style type="text/css"></style></defs><path d="M541.44 91.733333c66.56 42.666667 195.84 118.186667 324.693333 120.746667v285.013333c0 11.946667 27.733333 291.413333-329.813333 447.146667-77.653333-32.853333-327.253333-160.853333-327.253333-454.826667V201.813333a705.28 705.28 0 0 0 331.52-110.08m-3.413334-85.333333C406.186667 138.24 142.506667 138.24 142.506667 138.24v351.573333c0 395.52 395.52 527.36 395.52 527.36 439.466667-175.786667 395.52-527.36 395.52-527.36V138.24a246.186667 246.186667 0 0 1-59.733334 7.253333c-162.133333 0-335.786667-139.093333-335.786666-139.093333z" fill="" p-id="2000"></path><path d="M517.973333 246.186667a85.333333 85.333333 0 1 1-85.333333 85.333333 85.333333 85.333333 0 0 1 85.333333-85.333333m0-42.666667a128 128 0 1 0 128 128 128 128 0 0 0-128-128z" fill="" p-id="2001"></path><path d="M517.973333 414.72a21.333333 21.333333 0 0 0-20.906666 20.906667v379.306666a20.906667 20.906667 0 1 0 42.666666 0v-378.88a21.333333 21.333333 0 0 0-20.906666-20.906666z" fill="" p-id="2002"></path><path d="M648.533333 541.013333h-128a20.906667 20.906667 0 0 0 0 42.666667h128a20.906667 20.906667 0 0 0 0-42.666667zM648.533333 667.733333h-128a20.906667 20.906667 0 0 0 0 42.666667h128a20.906667 20.906667 0 0 0 0-42.666667z" fill="" p-id="2003"></path></svg>