<?xml version="1.0" standalone="no"?><!DOCTYPE svg PUBLIC "-//W3C//DTD SVG 1.1//EN" "http://www.w3.org/Graphics/SVG/1.1/DTD/svg11.dtd"><svg t="1547788683734" class="icon" style="" viewBox="0 0 1024 1024" version="1.1" xmlns="http://www.w3.org/2000/svg" p-id="1294" xmlns:xlink="http://www.w3.org/1999/xlink" width="200" height="200"><defs><style type="text/css"></style></defs><path d="M760.55134815 346.29910124H263.44865185a179.78547517 179.78547517 0 0 0-165.70089876 189.72752907v283.34853689A179.78547517 179.78547517 0 0 0 263.44865185 1009.1026963h497.1026963a179.78547517 179.78547517 0 0 0 165.70089876-189.7275291V536.02663031A179.78547517 179.78547517 0 0 0 760.55134815 346.29910124z m82.85044938 480.53260641a92.79250331 92.79250331 0 0 1-82.85044938 99.42053926H263.44865185a92.79250331 92.79250331 0 0 1-82.85044938-99.42053926V528.57008987A92.79250331 92.79250331 0 0 1 263.44865185 429.14955061h497.1026963a92.79250331 92.79250331 0 0 1 82.85044938 99.42053926zM594.85044939 14.8973037H429.14955061a165.70089876 165.70089876 0 0 0-165.70089876 165.70089877v165.70089877h82.85044939V180.59820247a82.85044939 82.85044939 0 0 1 82.85044937-82.85044938h165.70089878a82.85044939 82.85044939 0 0 1 82.85044937 82.85044938v165.70089877h82.85044939V180.59820247a165.70089876 165.70089876 0 0 0-165.70089876-165.70089877z" p-id="1295"></path><path d="M429.14955061 512l165.70089878 0 0 331.40179753-165.70089878 0 0-331.40179753Z" p-id="1296"></path></svg>