<?xml version="1.0" standalone="no"?><!DOCTYPE svg PUBLIC "-//W3C//DTD SVG 1.1//EN" "http://www.w3.org/Graphics/SVG/1.1/DTD/svg11.dtd"><svg t="1538885869184" class="icon" style="" viewBox="0 0 1026 1024" version="1.1" xmlns="http://www.w3.org/2000/svg" p-id="2346" xmlns:xlink="http://www.w3.org/1999/xlink" width="200.390625" height="200"><defs><style type="text/css"></style></defs><path d="M512.383 1023.994a519.12 519.12 0 0 1-59.204-3.394l-20.523-2.365-6.253-19.69C393.868 896.1 358.584 882.287 328.36 882.287c-25.683 0-58.662 10.766-100.822 32.915l-18.503 9.72-16.311-13.069a515.345 515.345 0 0 1-79.811-79.81L99.845 815.73l9.721-18.504c30.333-57.738 39.522-99.331 28.092-127.155-11.546-28.105-47.996-51.561-111.434-71.707l-19.69-6.254-2.366-20.522a518.63 518.63 0 0 1-3.395-59.205c0-19.754 1.143-39.674 3.394-59.205l2.367-20.522 19.689-6.253c63.438-20.147 99.888-43.602 111.434-71.707 11.43-27.823 2.241-69.417-28.09-127.157l-9.722-18.503 13.069-16.311a515.345 515.345 0 0 1 79.81-79.811l16.312-13.07 18.504 9.721c42.166 22.152 75.144 32.918 100.818 32.915 30.226-0.003 65.513-13.818 98.046-116.257l6.253-19.69 20.522-2.366A518.883 518.883 0 0 1 512.384 0.773a519.089 519.089 0 0 1 59.206 3.394l20.521 2.367 6.254 19.689c32.534 102.446 67.818 116.257 98.04 116.257 25.683 0 58.663-10.766 100.823-32.914l18.503-9.72 16.311 13.068a515.177 515.177 0 0 1 79.812 79.81l13.069 16.312-9.72 18.504c-30.332 57.74-39.52 99.332-28.09 127.156 11.545 28.106 47.996 51.561 111.434 71.708l19.69 6.253 2.365 20.523a519.185 519.185 0 0 1 3.393 59.204c0 19.752-1.142 39.672-3.394 59.205l-2.365 20.522-19.69 6.254c-63.437 20.146-99.888 43.602-111.434 71.706-11.43 27.824-2.24 69.417 28.091 127.157l9.72 18.503-13.069 16.311a515.227 515.227 0 0 1-79.812 79.812l-16.311 13.069-18.503-9.72c-42.16-22.15-75.14-32.916-100.822-32.916-30.224 0-65.507 13.812-98.042 116.258l-6.254 19.69-20.523 2.364a518.919 518.919 0 0 1-59.204 3.395z m-31.928-64.984a455.838 455.838 0 0 0 63.857 0c15.146-42.262 32.543-73.854 52.918-96.187 26.878-29.458 60.244-44.396 99.176-44.396 32.148 0 67.871 9.763 111.249 30.548a451.677 451.677 0 0 0 41.333-41.336C817 740.585 810.381 688.793 828.04 645.804c10.45-25.437 28.83-46.81 56.19-65.336 19.76-13.38 44.352-25.284 74.78-36.164a455.315 455.315 0 0 0 1.123-31.92c0-10.624-0.376-21.3-1.123-31.92-30.428-10.88-55.021-22.784-74.78-36.163-27.36-18.528-45.74-39.9-56.19-65.338-17.66-42.987-11.04-94.78 20.948-161.834a451.793 451.793 0 0 0-41.333-41.336c-43.379 20.786-79.101 30.548-111.25 30.55-38.936 0-72.304-14.936-99.178-44.393-20.372-22.33-37.77-53.924-52.915-96.19a455.232 455.232 0 0 0-63.857 0c-15.146 42.262-32.543 73.85-52.92 96.185-26.874 29.456-60.24 44.393-99.17 44.398h-0.02c-32.14 0.001-67.856-9.762-111.234-30.55a451.793 451.793 0 0 0-41.334 41.337c31.99 67.055 38.609 118.847 20.95 161.835-10.451 25.438-28.831 46.81-56.191 65.337-19.758 13.38-44.352 25.283-74.78 36.164a455.856 455.856 0 0 0-1.123 31.92c0 10.623 0.376 21.302 1.123 31.919 30.428 10.88 55.022 22.784 74.78 36.164 27.36 18.527 45.74 39.9 56.19 65.337 17.66 42.988 11.04 94.779-20.95 161.834a451.804 451.804 0 0 0 41.335 41.336c43.378-20.785 79.101-30.549 111.25-30.549 38.935 0 72.303 14.937 99.177 44.393 20.374 22.33 37.77 53.923 52.917 96.19z" fill="" p-id="2347"></path><path d="M512.384 715.272c-111.873 0-202.889-91.016-202.889-202.889s91.016-202.889 202.89-202.889 202.888 91.016 202.888 202.89-91.016 202.888-202.889 202.888z m0-341.917c-76.66 0-139.028 62.368-139.028 139.028s62.368 139.028 139.028 139.028 139.028-62.368 139.028-139.028-62.368-139.028-139.028-139.028z" fill="" p-id="2348"></path></svg>