<?xml version="1.0" standalone="no"?><!DOCTYPE svg PUBLIC "-//W3C//DTD SVG 1.1//EN" "http://www.w3.org/Graphics/SVG/1.1/DTD/svg11.dtd"><svg t="1538885896094" class="icon" style="" viewBox="0 0 1024 1024" version="1.1" xmlns="http://www.w3.org/2000/svg" p-id="2456" xmlns:xlink="http://www.w3.org/1999/xlink" width="200" height="200"><defs><style type="text/css"></style></defs><path d="M748.8 665.6c-57.6 0-102.4 44.8-102.4 102.4 0 57.6 44.8 102.4 102.4 102.4 57.6 0 102.4-44.8 102.4-102.4 0-57.6-44.8-102.4-102.4-102.4z m0 153.6c-25.6 0-51.2-19.2-51.2-51.2 0-25.6 19.2-51.2 51.2-51.2 25.6 0 51.2 19.2 51.2 51.2 0 25.6-19.2 51.2-51.2 51.2z m268.8-102.4c-6.4-19.2-19.2-32-32-32-32 0-57.6-25.6-57.6-57.6 0-6.4 6.4-19.2 6.4-19.2 6.4-19.2 0-38.4-12.8-51.2l-64-38.4c-12.8-6.4-19.2-6.4-25.6-6.4-12.8 0-25.6 6.4-32 12.8-6.4 6.4-32 25.6-44.8 25.6-12.8 0-38.4-19.2-44.8-25.6-12.8-6.4-19.2-12.8-32-12.8-6.4 0-12.8 0-19.2 6.4l-70.4 32c-12.8 12.8-19.2 38.4-12.8 51.2 0 0 6.4 12.8 6.4 19.2 0 32-25.6 57.6-57.6 57.6-19.2 0-32 12.8-32 32 0 0-6.4 32-6.4 51.2 0 19.2 6.4 51.2 6.4 51.2 6.4 19.2 19.2 32 32 32 32 0 57.6 25.6 57.6 57.6 0 6.4-6.4 19.2-6.4 19.2-6.4 19.2 0 38.4 12.8 51.2l64 38.4c6.4 0 12.8 6.4 19.2 6.4 12.8 0 25.6-6.4 32-12.8 6.4-6.4 32-25.6 44.8-25.6 12.8 0 38.4 19.2 44.8 25.6 6.4 6.4 19.2 12.8 32 12.8 6.4 0 12.8 0 19.2-6.4l64-38.4c12.8-12.8 19.2-32 12.8-51.2 0 0-6.4-12.8-6.4-19.2 0-32 25.6-57.6 57.6-57.6 19.2 0 32-12.8 32-32 0 0 6.4-32 6.4-51.2 12.8-12.8 6.4-44.8 6.4-44.8z m-51.2 89.6c-51.2 6.4-96 51.2-96 108.8 0 12.8 0 25.6 6.4 32l-44.8 25.6-19.2-19.2c-19.2-12.8-44.8-25.6-64-25.6-19.2 0-38.4 6.4-57.6 25.6l-19.2 19.2-44.8-25.6c0-6.4 6.4-19.2 6.4-32 0-57.6-38.4-102.4-96-108.8 0-6.4-6.4-25.6-6.4-32 0-12.8 0-25.6 6.4-32 51.2-6.4 96-51.2 96-108.8 0-12.8 0-25.6-6.4-32l51.2-25.6 19.2 19.2c19.2 12.8 38.4 19.2 57.6 19.2 19.2 0 38.4-6.4 57.6-19.2 6.4-19.2 12.8-25.6 19.2-32l44.8 25.6c0 6.4-6.4 19.2-6.4 32 0 57.6 38.4 102.4 96 108.8 0 6.4 6.4 25.6 6.4 32 0 19.2 0 32-6.4 44.8z m-896 147.2V896c0-192 147.2-352 339.2-371.2h44.8c44.8-6.4 108.8-12.8 140.8-44.8l19.2-12.8c64-51.2 102.4-121.6 102.4-204.8C704 115.2 588.8 0 441.6 0c-140.8 0-256 115.2-256 262.4 0 76.8 38.4 153.6 102.4 204.8l19.2 12.8-25.6 6.4C108.8 550.4 0 710.4 0 896v89.6c0 19.2 12.8 32 32 32h492.8c-19.2-19.2-32-44.8-38.4-64H70.4zM249.6 262.4c0-108.8 89.6-192 192-192 108.8 0 192 89.6 192 192 0 108.8-89.6 192-192 192s-192-89.6-192-192z" fill="" p-id="2457"></path></svg>