<?xml version="1.0" standalone="no"?><!DOCTYPE svg PUBLIC "-//W3C//DTD SVG 1.1//EN" "http://www.w3.org/Graphics/SVG/1.1/DTD/svg11.dtd"><svg t="1539084705372" class="icon" style="" viewBox="0 0 1024 1024" version="1.1" xmlns="http://www.w3.org/2000/svg" p-id="1053" xmlns:xlink="http://www.w3.org/1999/xlink" width="200" height="200"><defs><style type="text/css"></style></defs><path d="M543.5392 540.33066667a254.49813333 254.49813333 0 0 0-141.78986667-466.05653334 254.976 254.976 0 0 0-254.63466666 254.63466667c0 87.99573333 44.8512 165.61493333 112.91306666 211.3536C108.40746667 597.74293333 0.06826667 744.10666667 0.06826667 915.6608a34.13333333 34.13333333 0 0 0 34.13333333 34.13333333H769.36533333a34.13333333 34.13333333 0 0 0 34.13333334-34.13333333c0-171.48586667-108.3392-317.8496-259.95946667-375.33013333zM215.38133333 328.84053333c0-102.74133333 83.5584-186.368 186.368-186.368s186.43626667 83.62666667 186.43626667 186.368a186.29973333 186.29973333 0 0 1-178.31253333 185.5488c-2.73066667-0.06826667-5.3248-0.4096-8.12373334-0.4096-2.73066667 0-5.39306667 0.34133333-8.12373333 0.4096a186.23146667 186.23146667 0 0 1-178.24426667-185.5488z m-145.27146666 552.68693334a333.6192 333.6192 0 0 1 325.08586666-298.66666667c2.2528 0.06826667 4.3008 0.68266667 6.5536 0.68266667s4.36906667-0.6144 6.62186667-0.68266667a333.6192 333.6192 0 0 1 325.15413333 298.66666667H70.10986667z" p-id="1054"></path><path d="M804.0448 510.63466667a222.208 222.208 0 0 0 89.4976-177.5616 223.4368 223.4368 0 0 0-223.232-223.16373334 34.13333333 34.13333333 0 0 0 0 68.26666667 155.17013333 155.17013333 0 0 1 154.96533333 154.89706667 155.17013333 155.17013333 0 0 1-154.96533333 154.89706666 34.13333333 34.13333333 0 0 0 0 68.26666667c3.34506667 0 6.5536-0.8192 9.89866667-1.024 1.70666667 0.27306667 3.20853333 1.024 4.9152 1.024a271.01866667 271.01866667 0 0 1 268.42453333 236.3392h-56.66133333a34.13333333 34.13333333 0 0 0 0 68.26666667h92.91093333a34.13333333 34.13333333 0 0 0 34.13333333-34.13333334c0-144.7936-91.81866667-267.6736-219.88693333-316.07466666z" p-id="1055"></path></svg>