<?xml version="1.0" standalone="no"?><!DOCTYPE svg PUBLIC "-//W3C//DTD SVG 1.1//EN" "http://www.w3.org/Graphics/SVG/1.1/DTD/svg11.dtd"><svg t="1539084712985" class="icon" style="" viewBox="0 0 1024 1024" version="1.1" xmlns="http://www.w3.org/2000/svg" p-id="1169" xmlns:xlink="http://www.w3.org/1999/xlink" width="200" height="200"><defs><style type="text/css"></style></defs><path d="M1023.092176 955.793855a68.206145 68.206145 0 0 1-68.206145 68.206145H68.206145a68.206145 68.206145 0 0 1-68.206145-68.206145 408.827634 408.827634 0 0 1 330.458773-401.052133 306.927653 306.927653 0 1 1 362.17463 0A408.827634 408.827634 0 0 1 1023.092176 955.793855z m-272.82458-647.958378A238.721508 238.721508 0 1 0 511.546088 546.556984 238.721508 238.721508 0 0 0 750.267596 307.835477zM600.214077 614.76313H422.878099C226.990051 614.76313 68.206145 745.718928 68.206145 907.367492a54.564916 54.564916 0 0 0 59.134728 48.426363h768.41043a54.564916 54.564916 0 0 0 59.134728-48.426363C954.886031 745.718928 796.102125 614.76313 600.214077 614.76313z" p-id="1170"></path></svg>