<?xml version="1.0" standalone="no"?><!DOCTYPE svg PUBLIC "-//W3C//DTD SVG 1.1//EN" "http://www.w3.org/Graphics/SVG/1.1/DTD/svg11.dtd"><svg t="1538885945350" class="icon" style="" viewBox="0 0 1024 1024" version="1.1" xmlns="http://www.w3.org/2000/svg" p-id="2804" xmlns:xlink="http://www.w3.org/1999/xlink" width="200" height="200"><defs><style type="text/css"></style></defs><path d="M635.27439587 982.30185074l-427.38011363 0c-20.60220075 0-37.24696349-17.20245931-37.24696349-37.55782941l0-0.78589952 0-32.52807566-73.01992902 0c-2.61267797 0-5.27542045 0-7.37231645-0.80336327-19.60207133-3.17736163-35.46093454-14.81798315-46.00362667-29.34256413-10.59974258-15.05549881-16.43169565-34.63428437-16.43169564-52.61332934l0-79.59819606c0-38.09922731 6.88913408-73.78137771 20.6511013-107.62859861 27.48202098-65.85252864 83.54515627-112.64205369 132.99043783-161.84050461l-1.82677845-1.58926279 0-0.53208291c-47.88745557-47.59288832-74.85485739-112.63390379-74.85485739-180.607777 0-140.11592363 115.0253659-255.17505422 255.43818467-255.17505422l0 0c140.14037447 0 255.73275079 115.05912946 255.7327508 255.17505422 0 70.35718542-29.09689742 134.33286997-75.1249738 180.607777l0 0.53208291 0 0-2.12134571 1.58926279c30.67801031 30.67684637 64.52523235 60.3058267 92.03170191 94.64554496l-79.83454778 20.92121771 0 0 0 0c-24.35355989-25.91837184-51.59107811-49.98435043-72.99547818-71.14308494-35.19896803 18.52160569-75.09935901 28.30983395-117.68810838 28.30983395-42.56313458 0-82.76740665-9.78939335-118.20389034-28.30983395-41.51526855 41.24515214-101.52652914 89.66469063-124.79030841 145.99794233-10.05019477 24.30465934-14.80983325 50.763264-14.80983325 79.04864824l0 79.59819606c0 2.89909419 0.53324686 6.31513657 1.5811129 8.19896548l96.23480774 0 0-98.11863666c0-12.18085433 10.05950976-22.45343005 22.7479973-22.45343005 12.15640462 0 21.97024768 10.27257571 21.97024768 22.45343005l0 132.21152426 0 3.19482539 0 33.56080469 262.27376014 0L635.27439587 982.30185074zM360.21551104 116.26659043L360.21551104 116.26659043c-99.67529984 0-181.12356011 80.93247715-181.12356011 180.607777 0 101.04334563 81.95589347 181.13985991 181.12356011 181.13985991 99.18396643 0 181.13985991-80.09651427 181.13985991-181.13985991C541.35537095 197.19906759 459.91526059 116.26659043 360.21551104 116.26659043L360.21551104 116.26659043zM489.62574222 633.77594823c39.55343133-39.69547605 92.38215566-59.9437312 144.59845973-59.9437312 27.64618638 0 55.90595584 6.03104825 81.87206429 17.46675484l153.40868039-154.0385644c4.32186368-4.00517461 10.04088093-6.17309184 15.4432091-6.17309184l0.46921046 0 88.67387506 0c12.3659776 0 22.09017059 9.56701241 22.09017059 21.63027399l0 0.77076366 0 88.67504014c0 6.0298843-2.3111259 11.43570546-6.33143637 15.45601707l-160.82640441 160.49574457c6.03570517 19.47749149 9.12690859 39.86779136 9.12690859 59.9437312 0 52.21514013-19.93273117 104.44541611-60.25576221 144.29807161-39.55343133 40.00983495-91.75576462 59.9437312-143.66935267 59.9437312-52.53299314 0-105.04502841-19.93389511-144.59845974-59.9437312-40.02729984-39.8526555-59.64334307-92.08293149-59.64334308-144.29807161C429.98239915 725.85771577 449.59844238 673.64373959 489.62574222 633.77594823L489.62574222 633.77594823zM952.77649237 493.200128L952.77649237 493.200128l-158.5152785 158.19975453c5.89133255 7.71345522 11.27968995 15.75640519 15.91242069 23.7842193l142.60285781-142.13131833L952.77649237 493.200128 952.77649237 493.200128zM776.49639993 632.23558599L776.49639993 632.23558599l157.73054407-157.57219954-40.16585045 0-139.19613042 139.19380253c7.11617081 5.09029831 13.6152667 10.80815047 20.24825514 16.51203299l0.31086706 0.6415269L776.49639993 632.23558599 776.49639993 632.23558599zM634.22420195 617.56430336L634.22420195 617.56430336c-41.70737778 0-82.80117134 15.58408875-113.85524906 46.95369045-31.05873465 31.35446585-46.97115534 72.46106738-46.97115534 113.54205298 0 41.09262962 15.91242069 82.20155904 46.97115534 113.71320434 31.05407773 31.21242226 72.44476643 46.96649842 113.85524906 46.96649842 40.77826958 0 82.18409529-15.75407616 113.23817302-46.96649842 31.65718301-31.5116453 46.95718343-72.62057586 46.95718343-113.71320434 0-19.62070016-3.40789134-39.06908501-10.66727083-57.62096242l-0.29689514-0.76843463C759.98669597 658.80014165 700.65421995 617.56430336 634.22420195 617.56430336L634.22420195 617.56430336zM634.22420195 703.60105074L634.22420195 703.60105074c40.77826958 0 74.15860907 33.37801045 74.15860907 74.45899719 0 40.79457053-33.38033949 74.45899719-74.15860907 74.45899719-41.09495865 0-74.47413305-33.66442667-74.47413304-74.45899719C559.75006891 736.97906119 593.12924331 703.60105074 634.22420195 703.60105074L634.22420195 703.60105074zM634.22420195 729.88035413L634.22420195 729.88035413c-26.88124473 0-48.50802461 21.61513813-48.5080246 48.1796938 0 26.57852757 21.62678101 48.20880043 48.5080246 48.20880042 26.56455566 0 48.19133667-21.63027399 48.19133668-48.20880042C682.41553863 751.49665621 660.78875762 729.88035413 634.22420195 729.88035413L634.22420195 729.88035413z" p-id="2805"></path></svg>