<?xml version="1.0" standalone="no"?><!DOCTYPE svg PUBLIC "-//W3C//DTD SVG 1.1//EN" "http://www.w3.org/Graphics/SVG/1.1/DTD/svg11.dtd"><svg class="icon" width="200px" height="200.00px" viewBox="0 0 1024 1024" version="1.1" xmlns="http://www.w3.org/2000/svg"><path fill="#333333" d="M860.16 563.2h-75.117714v-75.117714a52.004571 52.004571 0 0 0-13.677715-34.157715 52.224 52.224 0 0 0-34.157714-13.677714h-95.597714a46.665143 46.665143 0 0 0-47.762286 47.762286v75.117714h-170.642286v-75.117714a46.665143 46.665143 0 0 0-47.762285-47.762286h-95.597715a46.665143 46.665143 0 0 0-47.762285 47.762286v75.117714h-68.242286c-13.677714 0-27.282286 6.802286-27.282286 27.282286 0 13.677714 13.677714 27.282286 27.282286 27.282286h68.242286v68.242285c0 27.282286 20.48 47.762286 47.762285 47.762286h95.597715c27.282286 0 47.762286-20.48 47.762285-47.762286v-75.117714h170.642286v75.117714c0 27.282286 20.48 47.762286 47.762286 47.762286h95.597714c27.282286 0 47.762286-20.48 47.762286-47.762286v-75.117714h75.117714a29.330286 29.330286 0 0 0 27.282286-27.282286c0.073143-13.531429-13.531429-20.333714-27.209143-20.333714z m-498.322286 109.202286h-61.44v-170.642286h61.44v170.642286z m361.764572 0h-61.44v-170.642286h61.44v170.642286zM866.962286 160.402286h-102.4v-75.117715c0-47.762286-40.96-81.92-81.92-81.92h-341.357715c-47.762286 0-81.92 34.157714-81.92 81.92v75.117715h-102.4c-40.96 0-81.92 13.677714-109.202285 47.762285-34.157714 27.282286-47.762286 61.44-47.762286 109.202286v546.157714c0 88.722286 68.242286 157.037714 157.037714 157.037715h709.997715c40.96 0 81.92-13.677714 109.202285-47.762286 27.282286-27.282286 47.762286-68.242286 47.762286-109.202286v-546.157714a154.477714 154.477714 0 0 0-157.037714-157.037714z m-539.282286-61.44c0-20.48 6.802286-27.282286 27.282286-27.282286h320.877714c13.677714 0 27.282286 13.677714 27.282286 27.282286v61.44h-375.442286v-61.44z m628.077714 764.635428c0 47.762286-40.96 88.722286-88.722285 88.722286h-716.8c-47.762286 0-88.722286-40.96-88.722286-88.722286v-552.96c0-47.762286 40.96-88.722286 88.722286-88.722285h716.8c47.762286 0 88.722286 40.96 88.722285 88.722285v552.96z" /></svg>