<svg width="1024" height="1024" xmlns="http://www.w3.org/2000/svg" style="vector-effect: non-scaling-stroke;">
 <g>
  <path stroke="#4DA3FC" fill="#4DA3FC" stroke-width="20" d="m737.381486,78.805289c-67.020271,58.281126 -159.654811,58.84685 -227.184144,1.737591c-64.948601,54.946281 -153.15674,56.519175 -219.436672,4.716614l-119.180178,137.700542c73.312527,86.237322 72.886431,224.791968 -1.2528,310.438053c-9.839623,29.241259 -14.996644,27.831177 -16.070083,57.278348c-2.524482,70.896433 12.259152,137.033766 58.566177,186.844919c41.365808,44.495269 97.500936,63.366647 151.423151,56.633378c90.0435,5.374999 133.211011,50.430977 151.324265,77.379326c24.458545,-28.794066 62.493857,-75.083808 178.09445,-80.854352c69.008707,-11.507972 93.946964,-30.099078 126.334251,-64.470706c43.592412,-46.89033 58.835084,-106.267453 57.55041,-172.241178c-0.53348,-27.389035 -3.434354,-36.911255 -17.757822,-71.882328c-74.483026,-86.043205 -74.537206,-225.496382 -0.197713,-311.64365l-122.213292,-131.636557z"/>
  <path stroke="#fff" fill="#fff" stroke-width="10" d="m372.429838,380.91196l277.898051,0.097252l-9.017856,12.216426l-259.755869,-0.291745l-9.124338,-12.021933l0.000012,0zm1.909746,-162.506168l274.184648,-0.291745l7.957144,12.532187l-290.205157,0.097252l8.063364,-12.337694zm-27.058676,81.42965l328.089668,-0.291745l-0.424094,12.532198l-327.453384,-0.194493l-0.21219,-12.04596zm328.361259,1.162353c0,82.966084 -73.648788,150.459837 -164.19026,150.459837c-90.502355,0 -164.137418,-67.505952 -164.137418,-150.459837c0,-82.954289 73.648371,-150.448031 164.137418,-150.448031c90.541484,-0.012188 164.19026,67.493742 164.19026,150.448031zm-164.177368,-162.506179c-97.726757,0 -177.252834,72.893445 -177.252834,162.493958c0,89.612723 79.526089,162.506157 177.252834,162.506157c97.779968,0 177.292772,-72.893434 177.292772,-162.506157c0,-89.600514 -79.512792,-162.493958 -177.292772,-162.493958zm49.742119,162.506179c0,88.656167 -26.205059,150.459837 -49.742119,150.459837c-23.51043,0 -49.715073,-61.80367 -49.715073,-150.459837c0,-88.680576 26.191727,-150.448031 49.715073,-150.448031c23.523775,-0.012188 49.742119,61.767455 49.742119,150.448031zm-49.742119,-162.506179c-40.825947,0 -62.857106,83.728671 -62.857106,162.493958c0,78.789336 22.031159,162.506157 62.857106,162.506157c40.826364,0 62.897449,-83.728998 62.897449,-162.506157c-0.013309,-78.765287 -22.071085,-162.493958 -62.897449,-162.493958zm116.495808,162.506179c0,82.966084 -52.277876,150.459837 -116.495808,150.459837c-64.204587,0 -116.45587,-67.505952 -116.45587,-150.459837c0,-82.954289 52.251282,-150.448031 116.45587,-150.448031c64.217932,-0.012188 116.495808,67.493742 116.495808,150.448031zm-116.495808,-162.506179c-71.442714,0 -129.597891,72.893445 -129.597891,162.493958c0,89.612723 58.155177,162.506157 129.597891,162.506157c71.469331,0 129.611605,-72.893434 129.611605,-162.506157c0,-89.600514 -58.142273,-162.493958 -129.611605,-162.493958z"/>
  <path fill="#fff" d="m470.610615,507.272788l54.454155,0l72.790828,117.138924l1.111778,0l72.234942,-117.138924l55.01004,0l0,221.230238l-56.670089,0l0,-134.542835l-1.111774,0l-56.1142,95.080628l-28.342659,0l-55.57354,-95.080628l-1.111778,0l0,134.542835l-56.677704,0l0,-221.230238z"/>
  <path fill="#fff" d="m767.052505,509.627412l52.791516,0l0,220.950126l-52.791516,0l0,-220.950126z"/>
  <path fill="#fff" d="m214.955255,509.545523l56.695963,0l0,121.71847c0,19.314341 0.699609,31.834086 2.107973,37.55598c2.422748,9.197614 8.202413,16.582199 17.333918,22.152128c9.129476,5.570742 21.610792,8.35408 37.445977,8.35408c16.090054,0 28.220042,-2.629747 36.393008,-7.89493c8.16992,-5.261933 13.086494,-11.727407 14.747691,-19.393169c1.660182,-7.662513 2.490782,-20.386234 2.490782,-38.169536l0,-124.323021l56.695958,0l0,118.037958c0,26.980916 -1.532241,46.040085 -4.596722,57.17913c-3.064482,11.139859 -8.715191,20.540637 -16.951112,28.205589c-8.236939,7.664949 -19.249983,13.772855 -33.042183,18.319654c-13.790167,4.545984 -31.794254,6.821415 -54.012253,6.821415c-26.817769,0 -47.154232,-2.479406 -61.008371,-7.434971c-13.855154,-4.956374 -24.802197,-11.394217 -32.849255,-19.315967c-8.042996,-7.917685 -13.345421,-16.221381 -15.897125,-24.909461c-3.704186,-12.878124 -5.555264,-31.885284 -5.555264,-57.027165l0,-119.876181l0.001015,-0.000002z"/>
 </g>
</svg>